# xmcd
# Track frame offsets:
# 150
# 10982
# 20986
# 34653
# 48091
# 61436
# 72516
# 85122
# 99771
# 109627
# 124011
# 136776
# 147327
# 161610
# 175104
# 186171
#
# Disc length: 2649 seconds
# Revision: 0
# Processed by: cddbd v1.5.1PL2 Copyright (c) Steve Scherf et al.
# Submitted via: VisiTrax 2.10.0.248 - For more info visit www.synapsa.com
#
DISCID=d20a5710
DTITLE=Patti Page - Tennessee Waltz
DYEAR=2004
DGENRE=Misc
TTITLE0=How Much Is That Doggie In The Window
TTITLE1=A Poor Man's Roses
TTITLE2=Tennessee Waltz
TTITLE3=Mockin' Bird Hill
TTITLE4=Allegheny Moon
TTITLE5=Back In Your Own Back Yard
TTITLE6=Once In A While
TTITLE7=I Went To Your Wedding
TTITLE8=Come What May
TTITLE9=All My Love
TTITLE10=Cross Over The Bridge
TTITLE11=Old Cape Cod
TTITLE12=With My Eyes Wide Open I'm Dreaming
TTITLE13=Mama From The Train
TTITLE14=Left Right Out Of Your Heart
TTITLE15=Changing Partners
EXTD=
EXTT0=
EXTT1=
EXTT2=
EXTT3=
EXTT4=
EXTT5=
EXTT6=
EXTT7=
EXTT8=
EXTT9=
EXTT10=
EXTT11=
EXTT12=
EXTT13=
EXTT14=
EXTT15=
PLAYORDER=
